<svg width="200" height="1000" xmlns="http://www.w3.org/2000/svg">
	
	<!--<path d="M 10 20 C 66 35 132 5 190 20"/>
	<path d="M 10 50 Q 90 50 90 30 Q 90 50 100 50 Q 110 50 110 30 Q 110 50 190 50"/>-->
	<style>
		@keyframes gay {
			0% {
				fill: red;
			}
			20% {
				fill: orange;
			}
			40% {
				fill: yellow;
			}
			60% {
				fill: green;
			}
			80% {
				fill: blue;
			}
			100% {
				fill: purple;
			}
		}
		#dog {
			animation: gay 5s ease-in-out infinite alternate;
		}
	</style>
	<g stroke="transparent" stroke-linejoin="round" stroke-linecap="round">
		<path id="bun" d="M 10 900 C 10 1000 190 1000 190 900 V 100 C 190 0 10 0 10 100 Z" fill="orange"/>
		<path id="dog" d="M 50 910 C 50 990 150 990 150 910 V 90 C 150 10 50 10 50 90 Z" fill="red"/>
		<!--<path id="mustard" d="M 60 90 L 140 110 L 60 130" stroke="yellow" stroke-width="10" fill="transparent"/>-->
	</g>
</svg>